{
  "title": "FREAKY ALI (2016) x264 DesiSCR Rip AC3 5.1 -DDR",
  "uid": 15794868,
  "size": 1592529516,
  "categoryP": "video",
  "categoryS": "movies",
  "magnet": "?xt=urn:btih:1dec3bd270af23fbf5b58b92ac45472ff5ccb005&amp;dn=FREAKY+ALI+%282016%29+x264+DesiSCR+Rip+AC3+5.1+-DDR&amp;tr=udp%3A%2F%2Ftracker.leechers-paradise.org%3A6969&amp;tr=udp%3A%2F%2Fzer0day.ch%3A1337&amp;tr=udp%3A%2F%2Fopen.demonii.com%3A1337&amp;tr=udp%3A%2F%2Ftracker.coppersurfer.tk%3A6969&amp;tr=udp%3A%2F%2Fexodus.desync.com%3A6969",
  "seeders": 355,
  "leechers": 213,
  "uploader": "SaM",
  "files": 3,
  "time": 1473444823,
  "description": "FREAKY ALI\r\n\r\n1/3 DvD x264 DesiSCR Rip\r\n\r\nHindi AC3 5.1 Audio\r\n \nhttp://extraimago.com/image/wiEe \nhttp://extraimago.com/image/wiEZ \nhttp://extraimago.com/image/wiEK \nhttp://extraimago.com/image/wiEJ \nhttp://extraimago.com/image/wiE0 \nhttp://extraimago.com/image/wiEz \nhttp://extraimago.com/image/wiEU \nhttp://extraimago.com/image/wiEM \nhttp://extraimago.com/image/wiE9 \nhttp://extraimago.com/image/wiE3 \nhttp://extraimago.com/image/wiEb \nhttp://extraimago.com/image/wiEh\r\n\r\nSpecs:\r\nSource: DesiSCR @ ICTV\r\n\r\nFormat : Matroska\r\nFile size : 1.47 GiB\r\nDuration : 2 h 0 min\r\nOverall bit rate : 1 758 kb/s\r\n\r\nVideo\r\nFormat : AVC\r\nFormat/Info : Advanced Video Codec\r\nFormat profile :   \r\nFormat settings, CABAC : Yes\r\nFormat settings, ReFrames : 16 frames\r\nCodec ID : V_MPEG4/ISO/AVC\r\nDuration : 2 h 0 min\r\nBit rate : 1 500 kb/s\r\nWidth : 720 pixels\r\nHeight : 304 pixels\r\nDisplay aspect ratio : 2.35:1\r\nFrame rate mode : Constant\r\nFrame rate : 25.000 FPS\r\nColor space : YUV\r\nChroma subsampling : 4:2:0\r\nBit depth : 8 bits\r\nScan type : Progressive\r\nBits/(Pixel*Frame) : 0.274\r\nStream size : 1.26 GiB (85%)\r\nDefault : Yes\r\nForced : No\r\nColor range : Limited\r\nColor primaries : BT.601 NTSC\r\nTransfer characteristics : BT.470 System B, BT.470 System G\r\nMatrix coefficients : BT.601\r\n\r\nAudio\r\nFormat : AC-3\r\nFormat/Info : Audio Coding 3\r\nMode extension : CM (complete main)\r\nFormat settings, Endianness : Big\r\nCodec ID : A_AC3\r\nDuration : 2 h 0 min\r\nBit rate mode : Constant\r\nBit rate : 256 kb/s\r\nChannel(s) : 6 channels\r\nChannel positions : Front: L C R, Side: L R, LFE\r\nSampling rate : 48.0 kHz\r\nFrame rate : 31.250 FPS (1536 spf)\r\nCompression mode : Lossy\r\nStream size : 220 MiB (15%)\r\nLanguage : Hindi\r\nDefault : Yes\r\nForced : No\r\n\r\nSAMPLE Included",
  "parsed": {
    "xt": "urn:btih:1dec3bd270af23fbf5b58b92ac45472ff5ccb005",
    "dn": "FREAKY ALI (2016) x264 DesiSCR Rip AC3 5.1 -DDR",
    "tr": [
      "udp://exodus.desync.com:6969",
      "udp://open.demonii.com:1337",
      "udp://tracker.coppersurfer.tk:6969",
      "udp://tracker.leechers-paradise.org:6969",
      "udp://zer0day.ch:1337"
    ],
    "infoHash": "1dec3bd270af23fbf5b58b92ac45472ff5ccb005",
    "infoHashBuffer": {
      "type": "Buffer",
      "data": [
        29,
        236,
        59,
        210,
        112,
        175,
        35,
        251,
        245,
        181,
        139,
        146,
        172,
        69,
        71,
        47,
        245,
        204,
        176,
        5
      ]
    },
    "name": "FREAKY ALI (2016) x264 DesiSCR Rip AC3 5.1 -DDR",
    "announce": [
      "udp://exodus.desync.com:6969",
      "udp://open.demonii.com:1337",
      "udp://tracker.coppersurfer.tk:6969",
      "udp://tracker.leechers-paradise.org:6969",
      "udp://zer0day.ch:1337"
    ],
    "urlList": []
  },
  "previous": 134,
  "peers": 286,
  "last_updated": "2016-12-26T18:14:01.477Z"
}